<svg xmlns="http://www.w3.org/2000/svg" xmlns:xlink="http://www.w3.org/1999/xlink" width="500" zoomAndPan="magnify" viewBox="0 0 375 374.999991" height="500" preserveAspectRatio="xMidYMid meet" version="1.0"><defs><g/><clipPath id="53a92d3d4e"><path d="M 54.1875 157.222656 L 107.4375 157.222656 L 107.4375 210.472656 L 54.1875 210.472656 Z M 54.1875 157.222656 " clip-rule="nonzero"/></clipPath><clipPath id="948ca98fff"><path d="M 54.1875 157.222656 L 107.433594 157.222656 L 107.433594 183.863281 L 54.1875 183.863281 Z M 54.1875 157.222656 " clip-rule="nonzero"/></clipPath><clipPath id="b6021fc97e"><path d="M 107.433594 183.84375 C 107.433594 198.550781 95.515625 210.46875 80.808594 210.46875 C 66.105469 210.46875 54.1875 198.550781 54.1875 183.84375 C 54.1875 169.140625 66.105469 157.222656 80.808594 157.222656 C 95.515625 157.222656 107.433594 169.140625 107.433594 183.84375 Z M 107.433594 183.84375 " clip-rule="nonzero"/></clipPath><clipPath id="0e7dfc006b"><path d="M 54.1875 180.898438 L 107.433594 180.898438 L 107.433594 186.796875 L 54.1875 186.796875 Z M 54.1875 180.898438 " clip-rule="nonzero"/></clipPath><clipPath id="ad2319a84b"><path d="M 107.433594 183.84375 C 107.433594 198.550781 95.515625 210.46875 80.808594 210.46875 C 66.105469 210.46875 54.1875 198.550781 54.1875 183.84375 C 54.1875 169.140625 66.105469 157.222656 80.808594 157.222656 C 95.515625 157.222656 107.433594 169.140625 107.433594 183.84375 Z M 107.433594 183.84375 " clip-rule="nonzero"/></clipPath><clipPath id="c09c529e81"><path d="M 68.613281 171.648438 L 93 171.648438 L 93 196.046875 L 68.613281 196.046875 Z M 68.613281 171.648438 " clip-rule="nonzero"/></clipPath><clipPath id="62dc212da6"><path d="M 107.433594 183.84375 C 107.433594 198.550781 95.515625 210.46875 80.808594 210.46875 C 66.105469 210.46875 54.1875 198.550781 54.1875 183.84375 C 54.1875 169.140625 66.105469 157.222656 80.808594 157.222656 C 95.515625 157.222656 107.433594 169.140625 107.433594 183.84375 Z M 107.433594 183.84375 " clip-rule="nonzero"/></clipPath><clipPath id="85b0d9e5c2"><path d="M 74.066406 177.101562 L 87.558594 177.101562 L 87.558594 190.59375 L 74.066406 190.59375 Z M 74.066406 177.101562 " clip-rule="nonzero"/></clipPath><clipPath id="de54d25c40"><path d="M 107.433594 183.84375 C 107.433594 198.550781 95.515625 210.46875 80.808594 210.46875 C 66.105469 210.46875 54.1875 198.550781 54.1875 183.84375 C 54.1875 169.140625 66.105469 157.222656 80.808594 157.222656 C 95.515625 157.222656 107.433594 169.140625 107.433594 183.84375 Z M 107.433594 183.84375 " clip-rule="nonzero"/></clipPath></defs><rect x="-37.5" width="450" fill="#ffffff" y="-37.499999" height="449.999989" fill-opacity="1"/><rect x="-37.5" width="450" fill="#ffffff" y="-37.499999" height="449.999989" fill-opacity="1"/><rect x="-37.5" width="450" fill="#ffffff" y="-37.499999" height="449.999989" fill-opacity="1"/><g fill="#000000" fill-opacity="1"><g transform="translate(4.062433, 208.771871)"><g><path d="M 5.890625 -49.78125 C 13.492188 -50.4375 19.921875 -50.765625 25.171875 -50.765625 C 30.421875 -50.765625 34.4375 -49.285156 37.21875 -46.328125 C 40.007812 -43.378906 41.40625 -39.019531 41.40625 -33.25 C 41.40625 -26.257812 39.539062 -21.367188 35.8125 -18.578125 C 32.59375 -16.210938 28.550781 -15.03125 23.6875 -15.03125 L 17.015625 -15.25 L 17.015625 0 L 5.890625 0 L 6.171875 -23.25 Z M 28.359375 -40.765625 C 27.703125 -41.429688 26.144531 -41.765625 23.6875 -41.765625 C 21.226562 -41.765625 19.003906 -41.644531 17.015625 -41.40625 L 17.015625 -24.890625 C 19.003906 -24.554688 21.203125 -24.390625 23.609375 -24.390625 C 26.023438 -24.390625 27.679688 -24.800781 28.578125 -25.625 C 29.472656 -26.457031 29.921875 -28.953125 29.921875 -33.109375 C 29.921875 -37.273438 29.398438 -39.828125 28.359375 -40.765625 Z M 28.359375 -40.765625 "/></g></g></g><g fill="#000000" fill-opacity="1"><g transform="translate(56.17417, 208.771871)"><g><path d="M 33.078125 -0.203125 C 30.691406 0.546875 27.9375 0.921875 24.8125 0.921875 C 21.695312 0.921875 18.941406 0.546875 16.546875 -0.203125 C 14.160156 -0.960938 11.953125 -2.265625 9.921875 -4.109375 C 5.671875 -7.890625 3.546875 -14.863281 3.546875 -25.03125 C 3.546875 -36.46875 6.476562 -44.03125 12.34375 -47.71875 C 15.507812 -49.75 19.664062 -50.765625 24.8125 -50.765625 C 32.894531 -50.765625 38.613281 -48.210938 41.96875 -43.109375 C 44.71875 -38.953125 46.09375 -32.925781 46.09375 -25.03125 C 46.09375 -14.863281 43.960938 -7.890625 39.703125 -4.109375 C 37.671875 -2.265625 35.460938 -0.960938 33.078125 -0.203125 Z M 19.171875 -39.84375 C 17.878906 -39.09375 16.878906 -37.546875 16.171875 -35.203125 C 15.460938 -32.859375 15.109375 -29.429688 15.109375 -24.921875 C 15.109375 -20.410156 15.472656 -16.972656 16.203125 -14.609375 C 16.929688 -12.242188 17.945312 -10.691406 19.25 -9.953125 C 20.550781 -9.222656 22.40625 -8.859375 24.8125 -8.859375 C 27.226562 -8.859375 29.070312 -9.238281 30.34375 -10 C 33.132812 -11.601562 34.53125 -16.566406 34.53125 -24.890625 C 34.53125 -33.304688 33.179688 -38.289062 30.484375 -39.84375 C 29.160156 -40.601562 27.269531 -40.984375 24.8125 -40.984375 C 22.351562 -40.984375 20.472656 -40.601562 19.171875 -39.84375 Z M 19.171875 -39.84375 "/></g></g></g><g fill="#000000" fill-opacity="1"><g transform="translate(113.886934, 208.771871)"><g><path d="M 35.03125 0 L 17.234375 -26.171875 L 33.25 -49.84375 L 46.796875 -49.84375 L 28.9375 -26.515625 L 28.9375 -26.09375 L 48.859375 0 Z M 17.09375 -49.84375 L 17.09375 0 L 5.890625 0 L 6.09375 -25.390625 L 5.890625 -49.84375 Z M 17.09375 -49.84375 "/></g></g></g><g fill="#000000" fill-opacity="1"><g transform="translate(169.047334, 208.771871)"><g><path d="M 5.890625 0 L 5.890625 -49.84375 L 35.8125 -49.84375 L 35.8125 -40.203125 L 16.953125 -40.421875 L 16.65625 -29.921875 L 34.03125 -29.921875 L 34.03125 -20.5625 L 16.65625 -20.5625 L 16.953125 -9.359375 L 35.8125 -9.5 L 35.8125 0 Z M 28.15625 -64.53125 L 30.140625 -56.71875 L 8.71875 -53.171875 L 7.296875 -59.0625 Z M 28.15625 -64.53125 "/></g></g></g><g fill="#ed2e49" fill-opacity="1"><g transform="translate(216.178816, 208.771871)"><g><path d="M 33.53125 -29.703125 L 33.53125 -20.34375 L 16.65625 -20.34375 L 17.015625 0 L 5.890625 0 L 5.890625 -49.84375 L 35.8125 -49.84375 L 35.8125 -40.203125 L 16.875 -40.421875 L 16.65625 -29.703125 Z M 33.53125 -29.703125 "/></g></g></g><g fill="#ed2e49" fill-opacity="1"><g transform="translate(262.335021, 208.771871)"><g><path d="M 32.765625 -49.84375 L 43.890625 -49.84375 L 43.890625 -22.484375 C 43.890625 -13.679688 42.34375 -7.578125 39.25 -4.171875 C 36.15625 -0.773438 31.378906 0.921875 24.921875 0.921875 C 18.472656 0.921875 13.6875 -0.753906 10.5625 -4.109375 C 7.445312 -7.460938 5.890625 -13.394531 5.890625 -21.90625 L 5.890625 -49.84375 L 17.015625 -49.84375 L 17.015625 -23.75 C 17.015625 -19.3125 17.257812 -16.023438 17.75 -13.890625 C 18.25 -11.765625 19.019531 -10.367188 20.0625 -9.703125 C 21.101562 -9.046875 22.722656 -8.726562 24.921875 -8.75 C 27.117188 -8.78125 28.722656 -9.113281 29.734375 -9.75 C 30.753906 -10.382812 31.515625 -11.742188 32.015625 -13.828125 C 32.515625 -15.910156 32.765625 -19.21875 32.765625 -23.75 Z M 32.765625 -49.84375 "/></g></g></g><g fill="#ed2e49" fill-opacity="1"><g transform="translate(320.189587, 208.771871)"><g><path d="M 5.890625 -49.84375 L 19.78125 -49.84375 L 35.171875 -14.46875 L 35.59375 -14.46875 L 34.75 -49.84375 L 45.03125 -49.84375 L 45.03125 0 L 31.125 0 L 15.734375 -35.375 L 15.3125 -35.375 L 16.171875 0 L 5.890625 0 Z M 5.890625 -49.84375 "/></g></g></g><g clip-path="url(#53a92d3d4e)"><path fill="#efefed" d="M 107.433594 183.84375 C 107.433594 198.550781 95.515625 210.46875 80.808594 210.46875 C 66.105469 210.46875 54.1875 198.550781 54.1875 183.84375 C 54.1875 169.140625 66.105469 157.222656 80.808594 157.222656 C 95.515625 157.222656 107.433594 169.140625 107.433594 183.84375 " fill-opacity="1" fill-rule="nonzero"/></g><g clip-path="url(#948ca98fff)"><g clip-path="url(#b6021fc97e)"><path fill="#ed2e49" d="M 108.839844 183.84375 L 52.78125 183.84375 L 52.78125 156.09375 L 108.839844 156.09375 L 108.839844 183.84375 " fill-opacity="1" fill-rule="nonzero"/></g></g><g clip-path="url(#0e7dfc006b)"><g clip-path="url(#ad2319a84b)"><path fill="#28292a" d="M 109.703125 186.769531 L 51.917969 186.769531 L 51.917969 180.921875 L 109.703125 180.921875 L 109.703125 186.769531 " fill-opacity="1" fill-rule="nonzero"/></g></g><g clip-path="url(#c09c529e81)"><g clip-path="url(#62dc212da6)"><path fill="#28292a" d="M 92.992188 183.84375 C 92.992188 190.574219 87.539062 196.027344 80.808594 196.027344 C 74.082031 196.027344 68.628906 190.574219 68.628906 183.84375 C 68.628906 177.117188 74.082031 171.664062 80.808594 171.664062 C 87.539062 171.664062 92.992188 177.117188 92.992188 183.84375 " fill-opacity="1" fill-rule="nonzero"/></g></g><g clip-path="url(#85b0d9e5c2)"><g clip-path="url(#de54d25c40)"><path fill="#efefed" d="M 87.535156 183.84375 C 87.535156 187.558594 84.523438 190.570312 80.808594 190.570312 C 77.097656 190.570312 74.085938 187.558594 74.085938 183.84375 C 74.085938 180.132812 77.097656 177.121094 80.808594 177.121094 C 84.523438 177.121094 87.535156 180.132812 87.535156 183.84375 " fill-opacity="1" fill-rule="nonzero"/></g></g></svg>