<svg xmlns="http://www.w3.org/2000/svg" xmlns:xlink="http://www.w3.org/1999/xlink" width="500" zoomAndPan="magnify" viewBox="0 0 375 374.999991" height="500" preserveAspectRatio="xMidYMid meet" version="1.0"><defs><clipPath id="213f277be4"><path d="M 0 0 L 374.992188 0 L 374.992188 187.632812 L 0 187.632812 Z M 0 0 " clip-rule="nonzero"/></clipPath><clipPath id="1897e7e34f"><path d="M 374.992188 187.496094 C 374.992188 291.046875 291.046875 374.992188 187.496094 374.992188 C 83.945312 374.992188 0 291.046875 0 187.496094 C 0 83.945312 83.945312 0 187.496094 0 C 291.046875 0 374.992188 83.945312 374.992188 187.496094 Z M 374.992188 187.496094 " clip-rule="nonzero"/></clipPath><clipPath id="1bbb0739dc"><path d="M 0 166.730469 L 374.992188 166.730469 L 374.992188 208.292969 L 0 208.292969 Z M 0 166.730469 " clip-rule="nonzero"/></clipPath><clipPath id="142490ed86"><path d="M 374.992188 187.496094 C 374.992188 291.046875 291.046875 374.992188 187.496094 374.992188 C 83.945312 374.992188 0 291.046875 0 187.496094 C 0 83.945312 83.945312 0 187.496094 0 C 291.046875 0 374.992188 83.945312 374.992188 187.496094 Z M 374.992188 187.496094 " clip-rule="nonzero"/></clipPath><clipPath id="4d5d0e6476"><path d="M 101.59375 101.59375 L 273.429688 101.59375 L 273.429688 273.429688 L 101.59375 273.429688 Z M 101.59375 101.59375 " clip-rule="nonzero"/></clipPath><clipPath id="58d1661072"><path d="M 374.992188 187.496094 C 374.992188 291.046875 291.046875 374.992188 187.496094 374.992188 C 83.945312 374.992188 0 291.046875 0 187.496094 C 0 83.945312 83.945312 0 187.496094 0 C 291.046875 0 374.992188 83.945312 374.992188 187.496094 Z M 374.992188 187.496094 " clip-rule="nonzero"/></clipPath><clipPath id="34a7bb733c"><path d="M 140 140 L 235 140 L 235 235 L 140 235 Z M 140 140 " clip-rule="nonzero"/></clipPath><clipPath id="75264177a3"><path d="M 374.992188 187.496094 C 374.992188 291.046875 291.046875 374.992188 187.496094 374.992188 C 83.945312 374.992188 0 291.046875 0 187.496094 C 0 83.945312 83.945312 0 187.496094 0 C 291.046875 0 374.992188 83.945312 374.992188 187.496094 Z M 374.992188 187.496094 " clip-rule="nonzero"/></clipPath></defs><rect x="-37.5" width="450" fill="#ffffff" y="-37.499999" height="449.999989" fill-opacity="1"/><rect x="-37.5" width="450" fill="#ffffff" y="-37.499999" height="449.999989" fill-opacity="1"/><path fill="#efefed" d="M 374.992188 187.496094 C 374.992188 291.046875 291.046875 374.992188 187.496094 374.992188 C 83.945312 374.992188 0 291.046875 0 187.496094 C 0 83.945312 83.945312 0 187.496094 0 C 291.046875 0 374.992188 83.945312 374.992188 187.496094 " fill-opacity="1" fill-rule="nonzero"/><g clip-path="url(#213f277be4)"><g clip-path="url(#1897e7e34f)"><path fill="#ed2e49" d="M 384.886719 187.496094 L -9.890625 187.496094 L -9.890625 -7.933594 L 384.886719 -7.933594 L 384.886719 187.496094 " fill-opacity="1" fill-rule="nonzero"/></g></g><g clip-path="url(#1bbb0739dc)"><g clip-path="url(#142490ed86)"><path fill="#28292a" d="M 390.96875 208.09375 L -15.976562 208.09375 L -15.976562 166.902344 L 390.96875 166.902344 L 390.96875 208.09375 " fill-opacity="1" fill-rule="nonzero"/></g></g><g clip-path="url(#4d5d0e6476)"><g clip-path="url(#58d1661072)"><path fill="#28292a" d="M 273.28125 187.496094 C 273.28125 234.875 234.875 273.28125 187.496094 273.28125 C 140.117188 273.28125 101.710938 234.875 101.710938 187.496094 C 101.710938 140.117188 140.117188 101.710938 187.496094 101.710938 C 234.875 101.710938 273.28125 140.117188 273.28125 187.496094 " fill-opacity="1" fill-rule="nonzero"/></g></g><g clip-path="url(#34a7bb733c)"><g clip-path="url(#75264177a3)"><path fill="#efefed" d="M 234.859375 187.496094 C 234.859375 213.652344 213.652344 234.859375 187.496094 234.859375 C 161.339844 234.859375 140.132812 213.652344 140.132812 187.496094 C 140.132812 161.339844 161.339844 140.132812 187.496094 140.132812 C 213.652344 140.132812 234.859375 161.339844 234.859375 187.496094 " fill-opacity="1" fill-rule="nonzero"/></g></g></svg>